<?xml version="1.0" standalone="no"?>
<!DOCTYPE svg PUBLIC "-//W3C//DTD SVG 20010904//EN"
 "http://www.w3.org/TR/2001/REC-SVG-20010904/DTD/svg10.dtd">
<svg version="1.0" xmlns="http://www.w3.org/2000/svg"
 width="1080.000000pt" height="1080.000000pt" viewBox="0 0 1080.000000 1080.000000"
 preserveAspectRatio="xMidYMid meet">

<g transform="translate(0.000000,1080.000000) scale(0.100000,-0.100000)"
fill="#000000" stroke="none">
<path d="M6776 9083 c134 -205 243 -456 279 -645 24 -126 21 -270 -7 -354 -13
-37 -28 -69 -33 -71 -6 -2 -26 27 -44 64 -78 160 -197 310 -323 406 -70 54
-252 148 -312 161 -28 7 -27 5 25 -55 129 -147 248 -294 278 -344 86 -142 114
-261 115 -485 1 -150 -1 -170 -22 -222 -28 -69 -101 -152 -180 -205 -31 -21
-73 -50 -92 -64 -35 -26 -442 -263 -471 -274 -14 -5 -17 15 -22 157 -9 274
-51 406 -151 475 -27 18 -52 33 -56 33 -4 0 0 -27 11 -60 56 -180 62 -345 16
-475 -38 -109 -94 -213 -144 -266 -101 -108 -238 -134 -367 -70 -124 61 -225
178 -267 310 -26 82 -28 225 -5 360 8 52 14 96 12 98 -5 5 -94 -114 -113 -151
-54 -105 -76 -266 -54 -405 6 -40 10 -75 8 -77 -2 -2 -51 31 -110 73 -135 96
-298 263 -346 353 -101 189 -25 389 297 789 111 138 136 181 103 181 -5 0
-123 -74 -262 -165 -139 -90 -254 -163 -256 -162 -1 2 17 83 42 180 41 168 97
322 179 499 33 73 34 78 17 87 -16 9 -36 -18 -165 -223 -222 -355 -241 -407
-240 -661 1 -146 4 -170 32 -275 48 -182 124 -339 219 -458 126 -157 282 -261
588 -392 61 -26 150 -67 198 -91 l88 -45 -90 -62 c-50 -35 -108 -83 -128 -108
-49 -58 -124 -108 -193 -128 -30 -8 -107 -20 -170 -26 -175 -17 -230 -53 -230
-148 0 -126 123 -282 258 -326 26 -9 117 -20 202 -26 85 -5 175 -15 199 -21
92 -25 138 -110 129 -240 -11 -144 -128 -309 -269 -377 -79 -38 -155 -49 -399
-57 -302 -10 -383 -40 -657 -243 -56 -42 -101 -77 -100 -79 2 -1 57 5 123 13
89 12 167 15 309 11 196 -6 286 -20 417 -66 109 -38 104 -40 -77 -41 -553 -1
-2307 -77 -2985 -129 -58 -5 1673 -8 3845 -8 4251 0 4084 -3 3215 46 -840 48
-1975 91 -2399 91 l-173 0 7 28 c114 452 78 883 -111 1329 -25 59 -48 113 -51
119 -3 8 17 14 59 19 100 11 215 42 279 76 102 55 181 160 207 275 l9 41 -111
6 c-162 10 -314 -11 -401 -55 -11 -6 -43 -28 -72 -49 -29 -22 -54 -39 -56 -39
-10 0 -14 133 -6 176 18 97 38 112 494 374 433 249 542 325 694 486 166 176
247 342 281 579 35 249 -34 540 -181 756 -77 114 -223 251 -303 284 -48 20
-51 19 -30 -12z m-467 -2647 c-30 -42 -58 -74 -64 -72 -11 3 -12 37 -1 82 l7
30 -127 -20 c-127 -21 -130 -20 -137 11 -1 4 79 23 178 43 169 34 181 35 189
19 7 -14 -4 -36 -45 -93z m-855 64 c36 -12 66 -25 66 -31 0 -6 -4 -7 -10 -4
-16 10 -119 -13 -174 -39 -28 -13 -81 -48 -118 -78 -48 -40 -81 -59 -115 -66
-58 -13 -163 -25 -163 -19 0 10 238 205 270 222 78 41 147 45 244 15z m76
-226 c0 -4 -10 -22 -21 -41 -35 -56 -11 -56 75 -2 43 28 80 48 83 45 10 -9
-46 -93 -84 -126 -20 -18 -56 -41 -79 -51 -45 -20 -190 -46 -200 -36 -3 3 1
27 10 53 8 25 14 50 11 54 -2 3 -36 12 -75 19 -39 7 -68 16 -65 20 6 6 292 67
328 70 9 0 17 -2 17 -5z m-750 -63 c8 -16 1 -34 -37 -95 -60 -95 -78 -99 -69
-17 l7 58 -62 7 c-34 3 -77 6 -95 6 -24 0 -34 5 -34 15 0 8 -1 18 -2 23 -3 7
98 17 214 20 58 2 69 -1 78 -17z m631 -596 c73 -59 145 -152 179 -231 49 -112
100 -420 100 -606 l0 -78 -200 0 -201 0 -67 52 c-76 58 -217 128 -309 154 -35
9 -63 20 -63 24 0 11 54 20 112 20 63 0 120 -17 335 -96 95 -35 177 -64 183
-64 17 0 13 376 -6 468 -14 68 -57 193 -123 360 -11 28 -18 52 -14 52 3 0 36
-25 74 -55z"/>
<path d="M4558 4171 c-60 -12 -84 -44 -67 -86 7 -19 8 -19 8 1 1 21 7 22 127
29 86 5 133 4 150 -4 37 -17 44 -14 44 18 0 18 -7 32 -17 36 -26 11 -202 15
-245 6z"/>
<path d="M6950 4147 c-41 -14 -60 -53 -42 -89 10 -22 11 -21 11 10 l1 33 123
-7 c67 -3 137 -13 156 -20 43 -18 41 -19 41 20 0 42 -6 45 -135 56 -122 11
-112 11 -155 -3z"/>
<path d="M3566 4115 c-60 -21 -80 -47 -77 -99 1 -15 5 -13 29 12 20 22 42 32
74 37 51 8 133 3 161 -9 14 -7 17 -3 17 22 0 27 -5 32 -37 41 -52 15 -120 13
-167 -4z"/>
<path d="M2315 4015 c-5 -2 -31 -6 -56 -10 -52 -7 -89 -35 -89 -68 0 -13 3
-17 8 -10 10 15 202 37 269 30 50 -5 53 -4 53 18 0 17 -8 26 -31 34 -29 10
-130 14 -154 6z"/>
<path d="M9070 3950 c-21 -21 -26 -56 -10 -80 7 -11 10 -7 10 19 l0 34 50 -5
c56 -6 90 -30 110 -79 15 -36 30 -38 30 -3 0 40 -30 94 -64 115 -41 25 -100
25 -126 -1z"/>
<path d="M3333 3865 c14 -47 70 -111 119 -136 22 -11 65 -24 96 -29 38 -7 64
-18 84 -37 19 -18 28 -22 29 -12 5 55 -27 83 -128 114 -71 22 -93 34 -144 81
-32 29 -61 54 -63 54 -2 0 1 -16 7 -35z"/>
<path d="M9830 3863 c-46 -24 -88 -86 -99 -148 -12 -64 -2 -79 18 -29 36 88
87 144 134 144 24 0 69 -42 85 -79 12 -28 17 -32 20 -18 7 35 -8 83 -36 110
-37 36 -78 42 -122 20z"/>
<path d="M1158 3850 c-17 -13 -28 -31 -28 -46 0 -22 2 -24 14 -11 8 8 38 17
66 20 60 7 96 -7 129 -50 l20 -28 1 32 c0 22 -9 43 -29 65 -24 27 -36 32 -87
36 -49 3 -63 0 -86 -18z"/>
<path d="M7560 3824 c0 -9 127 -246 144 -269 15 -19 15 -19 16 8 0 32 -79 193
-117 238 -23 27 -43 38 -43 23z"/>
<path d="M4526 3789 c-17 -14 -26 -29 -25 -47 1 -18 3 -21 6 -9 4 16 15 18
111 15 59 -2 115 -7 125 -12 14 -7 17 -3 17 23 0 41 -26 51 -129 51 -64 0 -83
-4 -105 -21z"/>
<path d="M6905 3765 c-27 -26 -30 -41 -15 -65 8 -12 10 -9 10 12 l0 27 93 -6
c50 -3 105 -12 121 -19 39 -19 38 -19 34 23 -4 45 -18 50 -141 52 -70 1 -80
-1 -102 -24z"/>
<path d="M2921 3740 c0 -8 4 -24 9 -35 5 -13 9 -14 9 -5 0 8 -4 24 -9 35 -5
13 -9 14 -9 5z"/>
<path d="M8336 3714 c-4 -14 -5 -28 -3 -31 3 -2 8 8 11 23 4 14 5 28 3 31 -3
2 -8 -8 -11 -23z"/>
<path d="M2275 3643 c-30 -7 -65 -44 -65 -67 0 -13 3 -16 8 -10 10 16 187 35
218 24 34 -13 34 -13 34 15 0 18 -7 28 -26 35 -26 10 -132 12 -169 3z"/>
<path d="M1472 3567 c-29 -29 -42 -51 -42 -70 0 -24 2 -26 19 -17 30 15 94
130 73 130 -4 0 -27 -19 -50 -43z"/>
<path d="M3765 3484 c-22 -20 -57 -44 -77 -55 -42 -21 -144 -39 -230 -39 l-58
0 0 -33 0 -33 103 8 c138 10 165 15 215 45 41 24 102 101 102 130 0 20 -12 15
-55 -23z"/>
<path d="M9366 3449 c-54 -83 -118 -147 -173 -171 -43 -19 -58 -20 -193 -13
-129 6 -152 5 -180 -10 -25 -13 -30 -19 -19 -25 27 -14 313 -40 349 -31 78 18
140 65 190 143 36 54 77 154 68 163 -2 2 -21 -23 -42 -56z"/>
<path d="M2860 3460 c-34 -8 -70 -41 -70 -64 0 -6 5 -18 10 -26 8 -12 10 -11
10 7 0 19 7 22 78 28 42 3 87 8 99 11 18 3 24 -2 32 -32 6 -22 6 -45 1 -59 -5
-14 -6 -26 -2 -28 6 -4 172 9 217 16 34 6 -65 47 -113 47 -53 0 -82 14 -82 41
0 11 -11 31 -25 44 -19 20 -34 25 -72 24 -26 -1 -64 -5 -83 -9z"/>
<path d="M4990 3453 c-20 -7 -50 -34 -50 -45 0 -4 110 -8 245 -8 l245 0 0 30
0 30 -212 -1 c-117 0 -220 -3 -228 -6z"/>
<path d="M6105 3451 c-22 -9 -51 -39 -44 -45 9 -8 359 -15 359 -7 0 5 -8 19
-18 31 -17 22 -28 23 -148 27 -71 1 -138 -1 -149 -6z"/>
<path d="M8280 3453 c-28 -11 -50 -36 -50 -58 0 -33 -20 -45 -74 -45 -31 0
-69 -9 -96 -22 l-45 -21 55 -7 c30 -4 82 -10 115 -13 l61 -6 0 54 c0 30 3 57
6 61 4 3 52 3 107 -1 94 -7 101 -9 101 -29 1 -17 2 -18 10 -5 14 24 0 58 -29
74 -30 15 -138 28 -161 18z"/>
<path d="M4424 3441 c-59 -6 -104 -29 -104 -53 0 -9 451 -2 498 8 17 3 22 10
20 27 -3 22 -5 22 -178 23 -96 1 -203 -2 -236 -5z"/>
<path d="M1212 3424 c-12 -8 -22 -23 -22 -32 0 -13 2 -14 9 -4 4 8 19 12 31
10 35 -5 144 -206 142 -260 -2 -33 1 -39 16 -34 9 2 59 10 110 17 50 6 92 15
92 19 0 10 -65 28 -130 36 -61 7 -80 18 -80 44 0 26 -79 172 -106 198 -30 26
-33 27 -62 6z"/>
<path d="M6720 3423 c-19 -10 -34 -22 -33 -28 2 -6 92 -15 215 -22 321 -17
298 -18 298 16 l0 29 -82 6 c-46 3 -146 8 -223 11 -123 6 -144 4 -175 -12z"/>
<path d="M7369 3401 c-42 -13 -72 -32 -63 -41 13 -11 224 -24 224 -13 0 22
-28 45 -65 53 -47 11 -61 11 -96 1z"/>
<path d="M10097 3352 c-97 -158 -201 -224 -322 -201 -61 11 -122 55 -174 124
-24 31 -45 55 -47 52 -3 -2 4 -29 15 -58 73 -193 280 -248 431 -112 51 45 108
136 130 206 18 58 6 54 -33 -11z"/>
<path d="M7713 3364 c-59 -30 -46 -35 120 -49 71 -6 81 1 54 39 -19 26 -131
33 -174 10z"/>
<path d="M2675 3316 c-22 -7 -50 -19 -62 -27 -27 -17 -31 -43 -5 -35 9 2 55 7
102 11 117 9 120 10 106 40 -9 21 -18 25 -56 24 -25 0 -63 -6 -85 -13z"/>
<path d="M8456 3303 c-3 -10 -8 -23 -11 -29 -6 -11 222 -40 232 -30 21 20 -68
61 -153 71 -54 6 -62 4 -68 -12z"/>
<path d="M2123 3263 c-30 -4 -63 -34 -63 -57 0 -5 33 -6 80 -2 95 8 140 16
140 26 0 21 -96 42 -157 33z"/>
<path d="M1793 3221 c-50 -8 -49 -8 -58 -43 -7 -26 -5 -28 21 -23 16 3 65 9
108 15 44 6 81 12 84 14 8 8 -44 34 -78 39 -19 2 -54 1 -77 -2z"/>
<path d="M1087 3123 c-25 -4 -47 -33 -47 -62 0 -10 202 18 214 30 6 5 -6 15
-27 24 -35 14 -79 17 -140 8z"/>
<path d="M4650 2914 c-1017 -20 -2398 -80 -3090 -133 -58 -5 1673 -8 3845 -8
4251 0 4084 -3 3215 46 -615 35 -1191 60 -1890 81 -324 10 -1786 20 -2080 14z"/>
</g>
</svg>
